<mxfile host="65bd71144e">
    <diagram id="wg_xhODracvfuhcH0AA5" name="Page-1">
        <mxGraphModel dx="974" dy="318" grid="1" gridSize="10" guides="1" tooltips="1" connect="1" arrows="1" fold="1" page="1" pageScale="1" pageWidth="827" pageHeight="1169" math="0" shadow="0">
            <root>
                <mxCell id="0"/>
                <mxCell id="1" parent="0"/>
                <mxCell id="kBfd-GEYU2pi8VK8aNkb-1" value="DANIEL" style="rounded=1;whiteSpace=wrap;html=1;" parent="1" vertex="1">
                    <mxGeometry x="320" y="10" width="120" height="60" as="geometry"/>
                </mxCell>
                <mxCell id="kBfd-GEYU2pi8VK8aNkb-2" value="D&amp;nbsp; &amp;nbsp;A&amp;nbsp; &amp;nbsp; N&amp;nbsp; &amp;nbsp;I&amp;nbsp; &amp;nbsp;E&amp;nbsp; &amp;nbsp;L&lt;br&gt;&amp;nbsp; 4&amp;nbsp; &amp;nbsp;1&amp;nbsp; &amp;nbsp;14&amp;nbsp; &amp;nbsp;9&amp;nbsp; &amp;nbsp;5&amp;nbsp; 12" style="rounded=1;whiteSpace=wrap;html=1;" parent="1" vertex="1">
                    <mxGeometry x="320" y="110" width="120" height="60" as="geometry"/>
                </mxCell>
                <mxCell id="kBfd-GEYU2pi8VK8aNkb-3" value="&lt;font face=&quot;Times New Roman&quot; style=&quot;font-size: 16px;&quot;&gt;&lt;b&gt;Clé de chiffrement privée&lt;/b&gt;&lt;/font&gt;" style="text;html=1;strokeColor=none;fillColor=none;align=center;verticalAlign=middle;whiteSpace=wrap;rounded=0;" parent="1" vertex="1">
                    <mxGeometry x="120" y="25" width="200" height="30" as="geometry"/>
                </mxCell>
                <mxCell id="kBfd-GEYU2pi8VK8aNkb-4" value="&lt;b style=&quot;font-family: &amp;quot;Times New Roman&amp;quot;; font-size: 16px;&quot;&gt;Définition du décalage à effectuer sur le message à coder&lt;/b&gt;" style="text;html=1;strokeColor=none;fillColor=none;align=center;verticalAlign=middle;whiteSpace=wrap;rounded=0;" parent="1" vertex="1">
                    <mxGeometry x="100" y="125" width="220" height="30" as="geometry"/>
                </mxCell>
                <mxCell id="kBfd-GEYU2pi8VK8aNkb-5" value="&lt;font color=&quot;#ff6666&quot;&gt;A&lt;/font&gt;+4, &lt;font color=&quot;#ff6666&quot;&gt;M&lt;/font&gt;+1, &lt;font color=&quot;#ff6666&quot;&gt;O&lt;/font&gt;+14, &lt;font color=&quot;#ff6666&quot;&gt;N&lt;/font&gt;+9, &lt;font color=&quot;#ff6666&quot;&gt;G&lt;/font&gt;+5, &lt;font color=&quot;#ff6666&quot;&gt;U&lt;/font&gt;+12, &lt;font color=&quot;#ff6666&quot;&gt;S&lt;/font&gt;+4" style="rounded=1;whiteSpace=wrap;html=1;fontFamily=Times New Roman;fontSize=16;" parent="1" vertex="1">
                    <mxGeometry x="320" y="210" width="280" height="60" as="geometry"/>
                </mxCell>
                <mxCell id="kBfd-GEYU2pi8VK8aNkb-6" value="&lt;font face=&quot;Times New Roman&quot;&gt;&lt;span style=&quot;font-size: 16px;&quot;&gt;&lt;b&gt;Décalage du message à coder&lt;/b&gt;&lt;/span&gt;&lt;/font&gt;" style="text;html=1;strokeColor=none;fillColor=none;align=center;verticalAlign=middle;whiteSpace=wrap;rounded=0;" parent="1" vertex="1">
                    <mxGeometry x="100" y="225" width="220" height="30" as="geometry"/>
                </mxCell>
                <mxCell id="kBfd-GEYU2pi8VK8aNkb-8" value="" style="curved=1;endArrow=classic;html=1;rounded=0;fontFamily=Times New Roman;fontSize=16;exitX=0.5;exitY=1;exitDx=0;exitDy=0;entryX=0.5;entryY=0;entryDx=0;entryDy=0;" parent="1" source="kBfd-GEYU2pi8VK8aNkb-1" target="kBfd-GEYU2pi8VK8aNkb-2" edge="1">
                    <mxGeometry width="50" height="50" relative="1" as="geometry">
                        <mxPoint x="390" y="350" as="sourcePoint"/>
                        <mxPoint x="440" y="300" as="targetPoint"/>
                        <Array as="points">
                            <mxPoint x="400" y="80"/>
                        </Array>
                    </mxGeometry>
                </mxCell>
                <mxCell id="kBfd-GEYU2pi8VK8aNkb-9" value="" style="curved=1;endArrow=classic;html=1;rounded=0;fontFamily=Times New Roman;fontSize=16;exitX=0.5;exitY=1;exitDx=0;exitDy=0;entryX=0.5;entryY=0;entryDx=0;entryDy=0;" parent="1" edge="1">
                    <mxGeometry width="50" height="50" relative="1" as="geometry">
                        <mxPoint x="380" y="170" as="sourcePoint"/>
                        <mxPoint x="380" y="210" as="targetPoint"/>
                        <Array as="points">
                            <mxPoint x="360" y="190"/>
                        </Array>
                    </mxGeometry>
                </mxCell>
                <mxCell id="kBfd-GEYU2pi8VK8aNkb-10" value="" style="curved=1;endArrow=classic;html=1;rounded=0;fontFamily=Times New Roman;fontSize=16;exitX=0.5;exitY=1;exitDx=0;exitDy=0;entryX=0.5;entryY=0;entryDx=0;entryDy=0;" parent="1" edge="1">
                    <mxGeometry width="50" height="50" relative="1" as="geometry">
                        <mxPoint x="520" y="270" as="sourcePoint"/>
                        <mxPoint x="520" y="310" as="targetPoint"/>
                        <Array as="points">
                            <mxPoint x="540" y="280"/>
                        </Array>
                    </mxGeometry>
                </mxCell>
                <mxCell id="kBfd-GEYU2pi8VK8aNkb-11" value="&lt;font color=&quot;#00cc00&quot;&gt;ENCWLGW&lt;/font&gt;" style="rounded=1;whiteSpace=wrap;html=1;fontFamily=Times New Roman;fontSize=16;" parent="1" vertex="1">
                    <mxGeometry x="439" y="310" width="120" height="60" as="geometry"/>
                </mxCell>
                <mxCell id="kBfd-GEYU2pi8VK8aNkb-12" value="AMONGUS" style="ellipse;whiteSpace=wrap;html=1;fontFamily=Times New Roman;fontSize=16;fillColor=#f8cecc;strokeColor=#b85450;" parent="1" vertex="1">
                    <mxGeometry x="670" y="20" width="120" height="50" as="geometry"/>
                </mxCell>
                <mxCell id="kBfd-GEYU2pi8VK8aNkb-13" value="&lt;b&gt;Message à coder&lt;/b&gt;" style="text;html=1;strokeColor=none;fillColor=none;align=center;verticalAlign=middle;whiteSpace=wrap;rounded=0;fontFamily=Times New Roman;fontSize=16;" parent="1" vertex="1">
                    <mxGeometry x="590" y="30" width="60" height="30" as="geometry"/>
                </mxCell>
                <mxCell id="kBfd-GEYU2pi8VK8aNkb-14" value="" style="rounded=0;whiteSpace=wrap;html=1;fontFamily=Times New Roman;fontSize=16;fillColor=none;glass=0;fillStyle=hatch;strokeWidth=3;" parent="1" vertex="1">
                    <mxGeometry x="559" y="1" width="267" height="80" as="geometry"/>
                </mxCell>
                <mxCell id="kBfd-GEYU2pi8VK8aNkb-15" value="" style="shape=note;whiteSpace=wrap;html=1;backgroundOutline=1;darkOpacity=0.05;rounded=0;glass=0;fillStyle=hatch;fontFamily=Times New Roman;fontSize=16;strokeWidth=3;fillColor=none;gradientColor=none;" parent="1" vertex="1">
                    <mxGeometry x="620" y="195" width="280" height="75" as="geometry"/>
                </mxCell>
                <mxCell id="kBfd-GEYU2pi8VK8aNkb-16" value="JE&amp;nbsp; SUIS&amp;nbsp; &amp;nbsp; UN&amp;nbsp; TEST" style="text;html=1;strokeColor=none;fillColor=none;align=center;verticalAlign=middle;whiteSpace=wrap;rounded=0;glass=0;fillStyle=hatch;fontFamily=Times New Roman;fontSize=16;" parent="1" vertex="1">
                    <mxGeometry x="680" y="200" width="150" height="30" as="geometry"/>
                </mxCell>
                <mxCell id="kBfd-GEYU2pi8VK8aNkb-17" value="&lt;font color=&quot;#ff6666&quot;&gt;DA&amp;nbsp; NIEL&lt;/font&gt;&amp;nbsp; &lt;font color=&quot;#ffb366&quot;&gt;DA&amp;nbsp; &amp;nbsp;NIEL&lt;/font&gt;" style="text;html=1;strokeColor=none;fillColor=none;align=center;verticalAlign=middle;whiteSpace=wrap;rounded=0;glass=0;fillStyle=hatch;fontFamily=Times New Roman;fontSize=16;" parent="1" vertex="1">
                    <mxGeometry x="680" y="225" width="150" height="30" as="geometry"/>
                </mxCell>
            </root>
        </mxGraphModel>
    </diagram>
</mxfile>